Coordinates
version=1
nRows=6
nColumns=36
inDegrees=yes

Units are S.I. units (second, meters, Newtons, ...)
If the header above contains a line with 'inDegrees', this indicates whether rotational values are in degrees (yes) or radians (no).

endheader
time	pelvis_tilt	pelvis_list	pelvis_rotation	pelvis_tx	pelvis_ty	pelvis_tz	hip_flexion_r	hip_adduction_r	hip_rotation_r	knee_angle_r	knee_angle_r_beta	ankle_angle_r	subtalar_angle_r	mtp_angle_r	hip_flexion_l	hip_adduction_l	hip_rotation_l	knee_angle_l	knee_angle_l_beta	ankle_angle_l	subtalar_angle_l	mtp_angle_l	lumbar_extension	lumbar_bending	lumbar_rotation	arm_flex_r	arm_add_r	arm_rot_r	elbow_flex_r	pro_sup_r	arm_flex_l	arm_add_l	arm_rot_l	elbow_flex_l	pro_sup_l
      1.12000000	    -17.79405014	     -1.46750793	      1.40000117	     -0.68709996	      1.24991645	     -0.59949593	     36.43462863	     -3.01617384	     -0.33975675	     58.08092570	      1.01370339	    -19.95209324	    -13.16905772	     -5.77770667	     31.09961382	     -3.69915415	      1.07256500	     54.53208259	      0.95176439	    -15.96477190	    -11.85799550	     -5.77770667	     -9.68323799	      1.81226352	     -2.63924089	      3.26818409	    -49.20780822	    -11.38946117	    106.47395448	     97.80084895	     -3.41801783	    -56.37944507	    -23.14963963	     93.70886559	     92.13229620
      1.13000000	    -17.62961129	     -1.46071896	      1.31897676	     -0.67688751	      1.25398564	     -0.59965627	     36.75377757	     -3.17479640	     -0.63382964	     56.49300387	      0.98598892	    -20.13799459	    -12.62323037	     -5.79344669	     31.56520917	     -4.01447451	      0.61754000	     53.31272624	      0.93048261	    -16.08740298	    -12.03453212	     -5.79344669	    -10.30110150	      1.80812562	     -2.44273774	      0.40794049	    -48.22001523	    -12.57409907	    104.34192074	     97.68967508	     -6.05881233	    -54.53481203	    -23.85675034	     91.80326858	     91.97723043
      1.14000000	    -17.42883359	     -1.43327560	      1.29347211	     -0.66677935	      1.25721423	     -0.60007216	     36.88504374	     -3.43879767	     -1.06382680	     54.41627399	      0.94974315	    -20.44697459	    -11.79458919	     -5.82207455	     31.89749241	     -4.36003819	     -0.08259839	     51.57377635	      0.90013221	    -16.83770232	    -12.23708601	     -5.82207455	    -11.20845993	      1.77454438	     -2.31421038	     -2.44620588	    -46.96669626	    -14.13776763	    102.51405257	     97.66472126	     -8.71105889	    -52.37386703	    -24.98409692	     90.48743752	     91.97490795
      1.15000000	    -17.22323789	     -1.42131333	      1.25539214	     -0.65688419	      1.25952069	     -0.60056093	     36.90525830	     -3.67447023	     -1.54558487	     51.96920073	      0.90703366	    -20.72383744	    -11.09685127	     -5.87272055	     32.11101149	     -4.70019844	     -0.77463843	     49.38950294	      0.86200944	    -17.91880834	    -12.52628951	     -5.87272055	    -12.10807493	      1.74763167	     -2.21385353	     -4.81777217	    -45.91067019	    -14.87813010	    100.32796587	     97.77500844	    -10.98525023	    -50.40150297	    -25.43945676	     88.85236902	     92.26125846
      1.16000000	    -17.00893473	     -1.44141325	      1.17641658	     -0.64707193	      1.26094069	     -0.60086828	     36.81680312	     -3.78768906	     -1.98727212	     49.21697481	      0.85899826	    -21.41570402	    -10.65020824	     -6.02401101	     32.26489355	     -5.11631395	     -1.46309994	     46.94108663	      0.81927652	    -19.34086723	    -12.61311198	     -6.02401101	    -12.97594199	      1.71784922	     -2.06162001	     -6.74591134	    -44.87647858	    -15.16375407	     97.64524936	     98.37547489	    -12.81329055	    -48.54323596	    -25.31018243	     86.76751457	     93.77719908
      1.17000000	    -16.82222688	     -1.46794453	      1.03313258	     -0.63714797	      1.26131049	     -0.60093435	     36.67298454	     -3.78770240	     -2.26556207	     46.30131100	      0.80811032	    -21.99831822	    -10.03608716	     -6.03872602	     32.37965415	     -5.58863654	     -2.11959893	     44.35931040	      0.77421602	    -20.33897016	    -11.57398982	     -6.03872602	    -13.82417374	      1.66693438	     -1.85583766	     -8.62169761	    -43.90591291	    -15.32698983	     95.10076404	     98.24611471	    -14.60417549	    -46.73114903	    -25.02229281	     84.96046125	     93.73028520
